<svg width="17" height="18" viewBox="0 0 17 18" fill="none" xmlns="http://www.w3.org/2000/svg">
<path d="M0.833008 4.8335C0.833008 3.43336 0.833008 2.7333 1.10549 2.19852C1.34517 1.72811 1.72763 1.34566 2.19803 1.10598C2.73281 0.833496 3.43288 0.833496 4.83301 0.833496H11.833C13.2331 0.833496 13.9332 0.833496 14.468 1.10598C14.9384 1.34566 15.3208 1.72811 15.5605 2.19852C15.833 2.7333 15.833 3.43336 15.833 4.8335V9.3335C15.833 10.7336 15.833 11.4337 15.5605 11.9685C15.3208 12.4389 14.9384 12.8213 14.468 13.061C13.9332 13.3335 13.2331 13.3335 11.833 13.3335H9.73613C9.21609 13.3335 8.95606 13.3335 8.70735 13.3845C8.4867 13.4298 8.27317 13.5047 8.07258 13.6072C7.84648 13.7227 7.64344 13.8852 7.23735 14.21L5.24947 15.8003C4.90273 16.0777 4.72936 16.2164 4.58346 16.2166C4.45657 16.2167 4.33653 16.159 4.25736 16.0598C4.16634 15.9458 4.16634 15.7238 4.16634 15.2797V13.3335C3.39136 13.3335 3.00388 13.3335 2.68596 13.2483C1.82323 13.0171 1.14936 12.3433 0.918193 11.4805C0.833008 11.1626 0.833008 10.7751 0.833008 10.0002V4.8335Z" stroke="#535862" stroke-width="1.66667" stroke-linecap="round" stroke-linejoin="round"/>
</svg>
